<svg width="24" height="24" viewBox="0 0 24 24" fill="none" xmlns="http://www.w3.org/2000/svg">
<path fill-rule="evenodd" clip-rule="evenodd" d="M13 9C13 10.1046 13.8954 11 15 11H20C20.5523 11 21 11.4477 21 12C21 12.5523 20.5523 13 20 13H15C13.8954 13 13 13.8954 13 15V20C13 20.5523 12.5523 21 12 21C11.4477 21 11 20.5523 11 20V15C11 13.8954 10.1046 13 9 13H4C3.44772 13 3 12.5523 3 12C3 11.4477 3.44772 11 4 11H9C10.1046 11 11 10.1046 11 9V4C11 3.44772 11.4477 3 12 3C12.5523 3 13 3.44772 13 4V9Z" fill="#006CFF"/>
</svg>
